<?xml version="1.0" encoding="utf-8"?>
<!-- Generator: Adobe Illustrator 15.0.0, SVG Export Plug-In . SVG Version: 6.00 Build 0)  -->
<!DOCTYPE svg PUBLIC "-//W3C//DTD SVG 1.1//EN" "http://www.w3.org/Graphics/SVG/1.1/DTD/svg11.dtd">
<svg version="1.1" id="圖層_1" xmlns="http://www.w3.org/2000/svg" xmlns:xlink="http://www.w3.org/1999/xlink" x="0px" y="0px"
	 width="20px" height="340px" viewBox="0 0 20 340" style="enable-background:new 0 0 20 340;" xml:space="preserve">
<g>
	<path style="fill:#FFFFFF;" d="M14.6,11.5l-1.2,4.1H5.7l0-1.3l1.6-1.9c0.7-0.8,1.4-1.7,2.1-2.8c1.2-1.9,1.8-3.4,1.8-4.4
		c0-0.9-0.3-1.6-0.8-2.1c-0.5-0.5-1-0.7-1.7-0.7c-0.8,0-1.5,0.4-2.2,1.2L5.8,2.7C7.1,0.9,8.6,0,10.3,0c1.1,0,2,0.4,2.7,1.2
		C13.5,2,13.8,2.9,13.8,4c0,1.3-0.5,2.7-1.5,4.2c-0.4,0.5-1.6,2-3.7,4.5h3.4c0.6,0,1.1-0.4,1.5-1.2H14.6z"/>
	<path style="fill:#FFFFFF;" d="M14.9,30.9c0,2.4-0.5,4.4-1.4,5.9c-0.9,1.4-1.9,2.1-3.2,2.1c-1.4,0-2.6-0.8-3.4-2.5
		c-0.8-1.5-1.2-3.3-1.2-5.5c0-2.2,0.4-4,1.2-5.5c0.9-1.6,2-2.4,3.4-2.4c1.3,0,2.3,0.7,3.2,2C14.4,26.4,14.9,28.4,14.9,30.9z
		 M11.8,33.4v-5.2c0-1.2-0.1-2.1-0.2-2.7c-0.2-0.9-0.7-1.3-1.4-1.3c-1,0-1.5,1.3-1.5,4v5.4c0,2.5,0.5,3.7,1.6,3.7
		C11.3,37.4,11.8,36.1,11.8,33.4z"/>
	<path style="fill:#FFFFFF;" d="M13.8,61.4H6.9v-1.2h0.6c1,0,1.4-0.4,1.4-1.3v-8.5c0-0.4-0.1-0.7-0.4-0.9c-0.2-0.2-0.6-0.3-0.9-0.3
		H6.9v-1.2c1.3-0.5,2.5-1.2,3.6-2.1l1.3,0V59c0,0.8,0.5,1.2,1.4,1.2h0.6V61.4z"/>
	<path style="fill:#FFFFFF;" d="M14.8,79.4c0,1.4-0.4,2.6-1.2,3.6c-0.9,1-1.9,1.6-3.3,1.6C9.1,84.5,8,84,7.2,83
		c-1-1.2-1.5-2.8-1.5-4.8c0-2.5,0.8-4.7,2.5-6.4c1.3-1.4,3-2.4,5.2-3.1l1.2,1C11.3,71,9.5,73,9,75.5c0.9-0.5,1.6-0.8,2.2-0.8
		c0.9,0,1.7,0.4,2.4,1.1C14.4,76.8,14.8,77.9,14.8,79.4z M11.9,80.3c0-2.5-0.6-3.7-1.7-3.7c-0.6,0-0.9,0.2-1.2,0.7
		c-0.2,0.4-0.2,0.9-0.2,1.6c0,2.8,0.6,4.3,1.7,4.3C11.4,83.1,11.9,82.2,11.9,80.3z"/>
	<path style="fill:#FFFFFF;" d="M20,105h-6.3v4.1l-3.5,0.6V105H0.4v-1.6H3v-6.9c-0.6,0.6-1.1,1-1.4,1.2L0,96.3
		c1.6-2.2,2.9-4.8,3.9-7.9l4,0.6c-0.4,0.9-0.7,1.5-0.9,1.9h9.8l1.2-1.2l2,1.9v0.9h-6.3v3.8h2.7l1.2-1.2l2,1.9v0.9h-5.9v5.3h3.1
		l1.2-1.2l2,1.9V105z M10.2,96.4v-3.8H6.1c-0.4,0.8-1,1.6-1.7,2.4c0,0,0,0-0.1,0.1c-0.1,0.1-0.1,0.2-0.2,0.2l2.4,1.2H10.2z
		 M10.2,103.3v-5.3H6.4v5.3H10.2z"/>
	<path style="fill:#FFFFFF;" d="M11.9,121.2c0,1.7-1,3.4-3.1,5.1l-1.3-1.6c1.1-0.7,1.8-1.5,2.2-2.1H8.1v-4.1h3.7V121.2z"/>
	<path style="fill:#FFFFFF;" d="M20,136.5l-0.9,0.9v5.5l-2.7,0.5l2.7,2.2l-0.9,0.9v8.1l-3.4,0.6v-0.9H5v0.5l-3.4,0.6v-11.9L1,143.8
		v-9.5l3.4,1.4h11.3l1.6-1.4L20,136.5z M16.2,143.5l-0.4,0.1v-0.7H4.3v0.3l-2.5,0.5l3.1,1.1h9.7L16.2,143.5z M15.7,138.3v-1.1H4.3
		v1.1H15.7z M15.7,141.2V140H4.3v1.2H15.7z M14.8,147.4v-1H5v1H14.8z M14.8,150.1V149H5v1.1H14.8z M14.8,152.8v-1.1H5v1.1H14.8z"/>
	<path style="fill:#FFFFFF;" d="M8,159.2l-1,1l-2.5,4.8c1.5,1.7,2.2,3.9,2.2,6.8c0,1.8-0.6,2.7-1.9,2.7H4c0-0.1,0-0.1,0-0.2
		c0-0.8-0.3-1.4-0.8-1.5v5.2l-2.8,0.6v-21.3l2.8,1.2h1.1l1.2-1.2L8,159.2z M4.4,160.1H3.1v11c0.1,0,0.3,0,0.4,0
		c0.4,0,0.5-0.2,0.5-0.7c0-2.4-0.3-4.3-0.8-5.5L4.4,160.1z M20,175.6l-1.9,2.6c-0.6-1.3-1.4-2.3-2.3-3.2c-1.1,1.5-2.3,2.7-3.5,3.5
		l-1.2-1.1c0.9-1,1.5-1.8,1.9-2.5l-1.9,1.6c-0.5-1-0.9-1.6-1.2-1.9c-0.7,1.5-1.6,2.7-2.7,3.8L6,177.3c1.2-2.1,2-4.1,2.3-5.9
		l-1.4,0.4V165c-0.2,0.1-0.6,0.2-1,0.4L5.3,164c2.7-2.2,4.8-4.5,6.1-6.9l3.5,1.2l-0.6,0.7c1.4,1.1,3.3,2,5.7,2.7l-1.3,3.2
		c-0.6-0.3-1.2-0.6-1.9-1.1H9.1c-0.4,0.3-1,0.6-1.8,0.9l1.9,0.7h0.9l0.9-0.8l2,1.9l-0.6,0.6v3.7l-2.3,0.5v-0.8H9.2v0.6l1.8,0.5
		c-0.2,0.6-0.3,1.1-0.5,1.4c1.1,0.4,2,0.8,2.6,1.4c0.6-1,1.1-2.1,1.4-3.2l-1.5,0.4v-7.1l2.3,0.9h1l0.9-0.9l2,1.9l-0.7,0.7v3.6
		l-2.3,0.5v-0.8h-0.9v0.6l2,1.1c-0.4,0.8-0.7,1.3-0.8,1.5C17.9,174.2,19,174.8,20,175.6z M10,169v-1.8H9.2v1.8H10z M14.7,161.7
		c-0.5-0.6-0.9-1.2-1.2-1.6c-0.8,0.9-1.6,1.6-2.3,2.2h3L14.7,161.7z M16.4,169v-1.8h-0.9v1.8H16.4z"/>
	<path style="fill:#FFFFFF;" d="M20,200.9H0v-1.6h8.2v-1.3H1.3v-1.6h6.9v-1.4H5.4v0.5L1.9,196v-9.6l3.5,1.2h2.7v-1.4h-8v-1.6h8v-1
		c-0.3,0-0.6,0-0.9,0c-2.2,0-3.9,0-5.1-0.1l-0.4-1.7c5.9,0,10.5-0.6,13.9-1.8l1.7,2.5c-1.5,0.5-3.4,0.8-5.7,0.9v1.1h5l1.3-1.2l2,1.9
		v0.9h-8.3v1.4h2.8l1.4-1.3l3.1,2.2l-0.9,1v5.5l-1.2,0.2l1.8,1.7v0.9h-7v1.3h5.1l1.2-1.1l2.1,1.8V200.9z M8.2,190.4v-1.2H5.4v1.2
		H8.2z M8.2,193.2v-1.3H5.4v1.3H8.2z M14.5,190.4v-1.2h-2.9v1.2H14.5z M14.5,193.2v-1.3h-2.9v1.3H14.5z M16.2,195.4l-1.7,0.3v-0.9
		h-2.9v1.4h3.7L16.2,195.4z"/>
	<path style="fill:#FFFFFF;" d="M20,211.4h-1.7v12.2l-2.9,0.6v-12.8h-1.2v3c0,4-0.9,7.3-2.8,9.8l-1.6-0.9c0.9-2.3,1.3-5,1.3-8.4
		v-2.5H6.7v1.7h0.9l1.2-1.2l1.8,1.9v0.9H7c1.3,0.5,2.6,1.2,3.8,2.2L9,220.8c-0.9-1.2-1.6-2.1-2.3-2.7v5.5l-3.2,0.6v-3.9
		c-0.6,0.9-1.4,1.7-2.6,2.5l-1-1.3c1.4-1.7,2.5-3.5,3.3-5.6h-3v-1.6h3.3v-1.7H0v-1.6h2.7c-0.5-1-1.1-2-1.8-2.9l1-1H0.2v-1.6h3.4
		v-2.4l3.4,0.7v1.7h0.6l1.2-1.2l2,1.9v0.9H7l2.8,0.8c-0.5,1-1.4,2-2.6,3.1h1l1.1-1.2l1.7,1.6v-7.7l3,0.6v1c1.6-0.5,2.8-1.3,3.5-2.2
		l2.3,2c-1.5,1.1-3.4,1.8-5.9,2v2.9h3.3l0.9-0.9l1.6,1.7V211.4z M6.9,206.9H2.2c1,0.7,1.9,1.5,2.7,2.5l-1.5,1.4h1.8
		C5.9,209.5,6.5,208.2,6.9,206.9z"/>
	<path style="fill:#FFFFFF;" d="M11.5,231.3l-0.9,0.9v4l-3,0.6v-1.1H4.2v1.6c0,3.9-0.9,7.2-2.8,9.9L0,246.2c0.7-2.7,1-5.8,1-9.2
		v-10.6l3.1,0.7v0.5c2-0.3,3.7-0.9,5.3-1.8l2.1,2.1c-2.1,0.9-4.5,1.4-7.3,1.4v1h3.4l1.4-1.2L11.5,231.3z M7.7,234v-2H4.2v2H7.7z
		 M20,244l-1.9,3.1c-1.2-1-2.1-2.3-2.9-3.8c-1.2,1.5-2.7,2.8-4.6,3.8l-0.7-1.2l0,0c0.2-0.2,0.4-0.4,0.5-0.6l-2.2,0.5v-1.1H7.1v1.1
		l-2.7,0.6v-9.8l2.7,1.1h1.1l1.2-1.1l2.3,1.9l-0.8,0.8v5.5c1.2-1.4,2.2-2.8,3-4.2c-0.5-1.5-0.9-3.4-0.9-5.4
		c-0.3,0.8-0.7,1.5-1.2,2.1l-1.2-0.9c1-3.3,1.6-6.9,1.9-10.7l3.2,0.7c-0.1,1-0.3,1.9-0.6,2.9H17l1.2-1.2l1.9,1.9v0.9h-1.1
		c-0.2,4.2-1,7.4-2.1,9.6C17.7,241.8,18.8,242.9,20,244z M8.3,243.4v-4.3H7.1v4.3H8.3z M16,231h-1.3c-0.2,0.6-0.4,1.2-0.7,1.9
		c0.2,1.4,0.6,2.9,1.1,4.4C15.6,235.5,15.9,233.3,16,231z"/>
	<path style="fill:#FFFFFF;" d="M20,269.5H6.7v-1.6h4.7v-2.8H7.3v-1.6h4.1v-2.1c-1.1,0.1-2.1,0.2-2.9,0.3l-0.1-0.5
		c0,0-0.5,0.4-1.4,1.3c-0.3-1.3-0.7-2.3-1-3v10L2.8,270v-6.6c-0.4,0.9-1,1.9-1.7,3l-1.1-1c1.3-2.7,2.1-5.7,2.6-9H0v-1.6h2.8v-2.2
		c-0.8,0.1-1.6,0.1-2.4,0.2L0.1,251c2.9-0.4,5-1.2,6.5-2.3l1.9,2.2v-2.2l3.4,1.3h3.4l1.5-1.3l2.9,2.3l-0.9,0.9v5.8l-1.6,0.5l1.5,1.6
		c-1,0.4-2.3,0.7-3.9,1v2.5h1.8l1.2-1.2l2,1.9v0.9h-5v2.8h2.1l1.2-1.2l2,1.9V269.5z M8.6,255v-3.7C7.9,251.6,7,251.8,6,252v2.7h0.6
		l0.9-0.9L8.6,255z M15.4,258.1v-1h-3.5v0.9l-3.4,0.6v-2.2H6v0.1c1.2,1.2,2.1,2.2,2.9,3.2C11.7,259.2,13.8,258.6,15.4,258.1z
		 M15.4,255.4v-3.8h-3.5v3.8H15.4z"/>
</g>
</svg>
