<?xml version="1.0" encoding="utf-8"?>
<!-- Generator: Adobe Illustrator 15.0.0, SVG Export Plug-In . SVG Version: 6.00 Build 0)  -->
<!DOCTYPE svg PUBLIC "-//W3C//DTD SVG 1.1//EN" "http://www.w3.org/Graphics/SVG/1.1/DTD/svg11.dtd">
<svg version="1.1" id="圖層_1" xmlns="http://www.w3.org/2000/svg" xmlns:xlink="http://www.w3.org/1999/xlink" x="0px" y="0px"
	 width="20px" height="340px" viewBox="0 0 20 340" style="enable-background:new 0 0 20 340;" xml:space="preserve">
<g>
	<path style="fill:#FFFFFF;" d="M14.6,11.5l-1.2,4.1H5.7l0-1.3l1.6-1.9c0.7-0.8,1.4-1.7,2.1-2.8c1.2-1.9,1.8-3.4,1.8-4.4
		c0-0.9-0.3-1.6-0.8-2.1c-0.5-0.5-1-0.7-1.7-0.7c-0.8,0-1.5,0.4-2.2,1.2L5.8,2.7C7.1,0.9,8.6,0,10.3,0c1.1,0,2,0.4,2.7,1.2
		C13.5,2,13.8,2.9,13.8,4c0,1.3-0.5,2.7-1.5,4.2c-0.4,0.5-1.6,2-3.7,4.5h3.4c0.6,0,1.1-0.4,1.5-1.2H14.6z"/>
	<path style="fill:#FFFFFF;" d="M14.9,30.8c0,2.4-0.5,4.4-1.4,5.9c-0.9,1.4-1.9,2.1-3.2,2.1c-1.4,0-2.6-0.8-3.4-2.5
		c-0.8-1.5-1.2-3.3-1.2-5.5c0-2.2,0.4-4,1.2-5.5c0.9-1.6,2-2.4,3.4-2.4c1.3,0,2.3,0.7,3.2,2C14.4,26.4,14.9,28.3,14.9,30.8z
		 M11.8,33.4v-5.2c0-1.2-0.1-2.1-0.2-2.7c-0.2-0.9-0.7-1.3-1.4-1.3c-1,0-1.5,1.3-1.5,4v5.4c0,2.5,0.5,3.7,1.6,3.7
		C11.3,37.3,11.8,36,11.8,33.4z"/>
	<path style="fill:#FFFFFF;" d="M13.8,61.3H6.9v-1.2h0.6c1,0,1.4-0.4,1.4-1.3v-8.5c0-0.4-0.1-0.7-0.4-0.9C8.3,49.1,8,49,7.6,49H6.9
		v-1.2c1.3-0.5,2.5-1.2,3.6-2.1l1.3,0V59c0,0.8,0.5,1.2,1.4,1.2h0.6V61.3z"/>
	<path style="fill:#FFFFFF;" d="M14.4,79c0,1.5-0.5,2.8-1.6,3.9c-1.1,1.1-2.4,1.6-4,1.6c-0.9,0-1.6-0.2-2.2-0.6
		c-0.5-0.3-0.7-0.6-0.7-0.9c0-0.3,0.1-0.5,0.2-0.8c0.2-0.4,0.5-0.6,0.8-0.6c0.4,0,0.8,0.2,1.3,0.7c0.5,0.4,1,0.6,1.4,0.6
		c0.5,0,0.9-0.2,1.3-0.6c0.4-0.5,0.6-1.2,0.6-2.1c0-1.1-0.4-1.9-1.1-2.4c-0.7-0.5-1.9-0.7-3.7-0.7L7,75.8c1.2-0.1,2.1-0.3,2.8-0.8
		c0.7-0.5,1.1-1.1,1.1-1.9c0-0.7-0.2-1.3-0.7-1.8c-0.4-0.4-0.8-0.5-1.3-0.5c-0.7,0-1.5,0.5-2.5,1.6l-0.8-1.2
		c1.2-1.7,2.6-2.6,4.5-2.6c1.1,0,2,0.3,2.7,1c0.6,0.6,0.9,1.4,0.9,2.3c0,1.4-0.7,2.4-2,3.2C13.5,75.8,14.4,77.2,14.4,79z"/>
	<path style="fill:#FFFFFF;" d="M20,104.9h-6.3v4.1l-3.5,0.6v-4.8H0.4v-1.6H3v-6.9c-0.6,0.6-1.1,1-1.4,1.2L0,96.3
		c1.6-2.2,2.9-4.8,3.9-7.9l4,0.6c-0.4,0.9-0.7,1.5-0.9,1.9h9.8l1.2-1.2l2,1.9v0.9h-6.3v3.8h2.7l1.2-1.2l2,1.9V98h-5.9v5.3h3.1
		l1.2-1.2l2,1.9V104.9z M10.2,96.4v-3.8H6.1c-0.4,0.8-1,1.6-1.7,2.4c0,0,0,0-0.1,0.1c-0.1,0.1-0.1,0.2-0.2,0.2l2.4,1.2H10.2z
		 M10.2,103.3V98H6.4v5.3H10.2z"/>
	<path style="fill:#FFFFFF;" d="M11.9,121.1c0,1.7-1,3.4-3.1,5.1l-1.3-1.6c1.1-0.7,1.8-1.5,2.2-2.1H8.1v-4.1h3.7V121.1z"/>
	<path style="fill:#FFFFFF;" d="M20,155H0v-1.6h1.5v-6c-0.1,0.1-0.2,0.3-0.2,0.3L0,146.8c1.1-2.4,1.6-5.1,1.6-8.2v-3.2l3.6,1.6H9
		c-0.3-1.1-0.5-2-0.5-2.8l3.2,0.5c0.1,0.5,0.3,1.3,0.7,2.3h2.3c-0.7-0.6-1.3-1.1-1.8-1.6l0.9-1.2c1.2,0.4,2.4,0.8,3.4,1.4l-1,1.4
		h0.7l1.2-1.2l2,1.9v0.9h-7.3c0.3,0.8,0.8,1.7,1.5,2.7c0.6-0.7,1.1-1.6,1.7-2.6l2.6,2c-0.9,1.2-1.9,2.2-3,3c0.9,0.8,1.4,1.2,1.7,1.2
		c0.1,0,0.2-0.1,0.3-0.4c0.1-0.6,0.3-1.4,0.6-2.3l1.6,0.5c-0.2,0.8-0.3,1.4-0.3,1.8c0,0.6,0.2,1.2,0.6,1.8c-0.2,1.4-1,2.1-2.4,2.1
		c0,0-0.1,0-0.1,0h-0.1l0.9,0.7l-0.8,0.9v3.1l0.7-0.7l1.8,1.7V155z M11.9,143.7c-1-1.6-1.9-3.3-2.5-5.1H5.1v0.3c0,0.4,0,0.8-0.1,1.3
		h1.5l1.1-1l2.7,2L9.4,142c-0.3,3.1-1.1,4.7-2.4,4.7H5.9c-0.1-0.8-0.7-1.3-1.7-1.6l0.2-1.1c0.8,0.1,1.3,0.1,1.5,0.2c0,0,0.1,0,0.1,0
		c0.3,0,0.6-0.8,0.7-2.3h-2c-0.5,1.8-1.4,3.5-2.8,5.1l2.7,1.2H8l-0.7-0.9C9.1,146.2,10.6,145,11.9,143.7z M6,153.4v-3.6H4.6v3.6H6z
		 M15.1,147.4c-0.7-0.5-1.3-1-1.8-1.6c-1.5,1-3.1,1.8-4.8,2.4h5.8L15.1,147.4z M10.2,153.4v-3.6H8.7v3.6H10.2z M14.5,153.4v-3.6
		h-1.5v3.6H14.5z"/>
	<path style="fill:#FFFFFF;" d="M20,175.2l-1.3,3.1c-3.3-0.3-6.2-1.1-8.8-2.4c-2.3,1.1-5.2,1.8-8.8,2.4l-0.7-1.6
		c2.8-0.7,5.2-1.4,7.1-2.3c-0.8-0.6-1.6-1.2-2.2-1.9c-1.2,0.8-2.7,1.4-4.6,2L0,173c1-0.5,2.2-1.2,3.4-2.1c1.2-0.9,2-1.6,2.3-2H5.1
		v0.3l-3.3,0.6v-10.1l3.3,1.3h2.5c0.3-0.5,0.5-1,0.6-1.4h-8v-1.6h16.8l0.9-0.8l1.8,1.6v0.8h-8c-0.2,0.5-0.7,1-1.3,1.4h4.1l1.3-1.3
		l3,2.2l-0.9,0.9v6.2l-2.1,0.5l2,1.6l-1.6,0.8c-1.1,1-2.2,1.9-3.3,2.5C14.8,174.8,17.2,175.1,20,175.2z M14.7,163.1v-0.6H5.1v0.6
		H14.7z M14.7,165.2v-0.6H5.1v0.6H14.7z M14.7,167.4v-0.7H5.1v0.7H14.7z M12.1,171.5h-5c0.8,0.7,1.7,1.2,2.6,1.7
		C10.5,172.7,11.3,172.1,12.1,171.5z M14.7,168.9h-5l-0.9,1h4.4L14.7,168.9z"/>
	<path style="fill:#FFFFFF;" d="M20,185.1l-0.7,0.7c0,0.1,0,0.5-0.1,1.3c-0.4,6.9-0.7,10.8-0.9,11.6c-0.3,0.8-0.6,1.4-1.1,1.8
		c-0.5,0.4-1.1,0.5-2,0.5h-1.5c-0.1-1.5-0.7-2.3-2-2.4l0.1-1.3c1.6,0.1,2.6,0.2,2.9,0.2c0.4,0,0.7-0.5,0.7-1.4
		c0.1-0.9,0.2-2.3,0.3-4c0.2-3.6,0.4-5.8,0.4-6.5h-3.5c-0.7,1.5-1.6,2.9-2.6,4.2l-0.9-0.6v11l-3.1,0.6v-1.5H3.6v1.3l-3.1,0.6v-18.4
		l3.1,0.9c0.2-1.2,0.3-2.5,0.4-3.8l3.1,0.8c-0.6,1.3-1.3,2.4-2.2,3.3h0.9l1.5-1.3l2.6,2.2l-0.8,0.9v3.2c1-3.1,1.6-6.1,1.8-9l3.3,0.8
		c-0.3,1.2-0.6,2.3-0.9,3.3h2.7l1.3-1.2L20,185.1z M5.9,190.3v-4.8H3.6v4.8H5.9z M5.9,197.9v-6.2H3.6v6.2H5.9z M15.1,192.7l-2.6,2.2
		c-0.5-2-1-3.7-1.6-5.1l1.3-1.1C13.3,189.9,14.3,191.2,15.1,192.7z"/>
	<path style="fill:#FFFFFF;" d="M12.4,214.2c0,4.2-1.9,7.5-5.7,9.9l-1.2-1.3c2.3-2.1,3.5-4.6,3.8-7.3c-0.3,0.3-1,0.9-2.1,1.8
		l-1.4-2.6c0.9-0.3,2.1-0.9,3.6-1.8v-2.6l-1.3,0.9c-0.2-0.9-0.4-1.8-0.8-2.5H5.4v3.4l1.5-1l0.7,1.4c-0.6,0.7-1.4,1.4-2.3,2.1v7.1
		c0,0.6-0.2,1.1-0.6,1.5c-0.4,0.4-0.9,0.7-1.4,0.7H2.1c0,0,0-0.1,0-0.1c0-0.9-0.6-1.5-1.7-1.7l0.1-1.2l1.3,0.1c0.1,0,0.1,0,0.1,0
		c0.3,0,0.4-0.2,0.4-0.7v-4L0.7,217L0,213.7c0.7-0.1,1.4-0.3,2.3-0.6v-4.4H0v-1.6h2.3v-4.3l3.1,0.6v3.6h0.1l0.9-0.8l0.7,0.7l0.8-0.5
		c0.4,0.4,0.9,1.1,1.5,2.1v-5.8l2.9,0.6L12.4,214.2z M20,221.8c-0.5,1.2-1.2,1.9-2.1,1.9h-2.5c-1.4,0-2.1-0.7-2.1-2.1v-18.8l2.9,0.6
		v5.5c0.5-0.7,0.9-1.7,1.2-3l2.6,1.3c-1,1.6-2.3,2.8-3.9,3.6v0.9c1.7,1,3,2,3.9,2.9l-2.1,2.7c-0.5-1.1-1.1-2.1-1.8-3v5.5
		c0,0.4,0.2,0.6,0.6,0.6h0.1c0.3,0,0.5-0.2,0.6-0.5l0.6-2.3l1.2,0.3c-0.1,0.5-0.1,0.9-0.1,1.3C19,220.3,19.3,221.2,20,221.8z"/>
	<path style="fill:#FFFFFF;" d="M20,244.6c-0.3,1.4-0.9,2.2-2,2.2c-1.3,0-2.4-1.2-3.4-3.7c-1.6,1.4-3.2,2.4-4.8,3.2L9,244.9
		c0.7-0.5,1.5-1.1,2.2-1.8H7.5v3.4L4.7,247v-3.9H0v-1.6h4.7v-1.2h-1v0.4l-2.8,0.5V232l-0.4,0.1v-6.4l2.3,0.7h0.7l0.9-0.7l2,1.6v-1.6
		l2.3,0.7h0.8l0.8-0.7l2.3,1.7l-0.7,0.7v3.1l-2.3,0.5v-0.4H8.7v0.3l-2.3,0.4v-4.4L5.9,228v3.3l-2.3,0.5v-0.5H2.8v0.3l-1.5,0.3
		l2.3,0.5h4.9l1.2-0.8l1.9,1.6l-0.2-1l1.4-0.3l-0.1-6.4l2.8,0.5l0.1,5.5l1.6-0.3l0.9-0.9l1.8,1.4l0.1,0.7l-4.2,0.8
		c0.1,1.5,0.2,2.8,0.4,3.9c0.5-0.8,0.9-1.9,1.3-3.1l2.6,1.4c-0.9,2.2-1.9,3.9-2.9,5.1c0.3,1.2,0.6,1.8,0.8,1.8
		c0.2,0,0.4-0.8,0.8-2.5l1.3,0.4c-0.2,0.8-0.3,1.5-0.3,2.1C19.6,243.3,19.8,243.9,20,244.6z M3.6,229.6V228H2.8v1.6H3.6z M4.7,235.5
		v-1.4h-1v1.4H4.7z M4.7,238.5v-1.4h-1v1.4H4.7z M8.6,235.5v-1.4h-1v1.4H8.6z M8.6,238.5v-1.4h-1v1.4H8.6z M10.5,240.6L8.6,241v-0.8
		h-1v1.2h2L10.5,240.6z M9.6,229.6V228H8.7v1.6H9.6z M13.7,240.4c-0.5-2.1-0.8-4.3-0.9-6.5l-1.1,0.2l-0.1-0.3l-0.3,0.3v6.3l-0.7,0.2
		l1.6,1.4C12.8,241.5,13.3,240.9,13.7,240.4z M19.7,228.9l-2.3,1.6c-0.4-1.3-0.8-2.5-1.4-3.6l1.2-0.9
		C18.1,226.8,18.9,227.8,19.7,228.9z"/>
</g>
</svg>
