<?xml version="1.0" encoding="utf-8"?>
<!-- Generator: Adobe Illustrator 15.0.0, SVG Export Plug-In . SVG Version: 6.00 Build 0)  -->
<!DOCTYPE svg PUBLIC "-//W3C//DTD SVG 1.1//EN" "http://www.w3.org/Graphics/SVG/1.1/DTD/svg11.dtd">
<svg version="1.1" id="Capa_1" xmlns="http://www.w3.org/2000/svg" xmlns:xlink="http://www.w3.org/1999/xlink" x="0px" y="0px"
	 width="8px" height="8px" viewBox="0 0 8 8" enable-background="new 0 0 8 8" xml:space="preserve">
<g>
	<path fill="#ffc800" d="M7.871,3.483L6.247,5.137L6.63,7.476c0.028,0.167-0.039,0.338-0.17,0.439C6.384,7.971,6.295,8,6.207,8
		c-0.068,0-0.137-0.019-0.2-0.053L4,6.845L1.993,7.948c-0.145,0.08-0.32,0.065-0.452-0.033c-0.132-0.101-0.198-0.271-0.17-0.439
		l0.383-2.338L0.129,3.483c-0.117-0.12-0.159-0.297-0.108-0.46s0.185-0.281,0.346-0.306l2.244-0.342L3.615,0.25
		C3.687,0.097,3.837,0,4,0c0.164,0,0.313,0.097,0.384,0.25l1.005,2.125l2.244,0.342C7.795,2.741,7.929,2.86,7.979,3.022
		C8.029,3.185,7.987,3.364,7.871,3.483z"/>
</g>
</svg>
