<?xml version="1.0" encoding="utf-8"?>
<!-- Generator: Adobe Illustrator 15.0.0, SVG Export Plug-In . SVG Version: 6.00 Build 0)  -->
<!DOCTYPE svg PUBLIC "-//W3C//DTD SVG 1.1//EN" "http://www.w3.org/Graphics/SVG/1.1/DTD/svg11.dtd">
<svg version="1.1" id="圖層_1" xmlns="http://www.w3.org/2000/svg" xmlns:xlink="http://www.w3.org/1999/xlink" x="0px" y="0px"
	 width="20px" height="340px" viewBox="0 0 20 340" style="enable-background:new 0 0 20 340;" xml:space="preserve">
<g>
	<path style="fill:#FFFFFF;" d="M20,17.7l-0.6,3.1H8.8c-1,0-1.9-0.4-2.7-1.1c-0.8-0.7-1.4-1.7-1.7-2.8c-0.3,1.4-0.8,2.8-1.6,4.3
		l-2.7-2.3c1.7-2,2.5-3.7,2.5-5.1V8.7H0.1V7.1h2.4l1.4-1.4L6.7,8L5.8,9v6c0,1.1,0.5,1.9,1.6,2.5v-7.2l3.3,1.1h4.7l1.6-1.1l2.9,1.9
		l-0.9,1v3.4l-3.3,0.7v-1h-4.9v0.5l-3.1,0.7c0.3,0.1,0.5,0.2,0.7,0.2L20,17.7z M5.3,3.2L2.8,5.4C2.2,3.9,1.5,2.5,0.6,1.3l1.2-1.1
		C3.3,1.2,4.4,2.2,5.3,3.2z M20,4.1H6V2.4h5.1V0l3.6,0.7v1.7h2.1L18,1.3l2,1.9V4.1z M19.4,7H7.3V5.3h8.9l1.2-1.2l2,1.9V7z M19.4,9.9
		H7.5V8.3h8.7l1.2-1.2l2,1.9V9.9z M15.5,14.7V13h-4.9v1.7H15.5z"/>
	<path style="fill:#FFFFFF;" d="M20,33.5H0v-1.9h16.6l1.3-1.3l2.1,2.1V33.5z"/>
	<path style="fill:#FFFFFF;" d="M6,51.2L2.7,60c0.9,1.3,1.6,2.6,2.2,3.8l-3.8,2.8c-0.1-1.4-0.3-2.7-0.5-4.1C0.4,61.3,0.2,60.4,0,60
		l4.9-9.3L6,51.2z M5.4,49.1l-2.3,3.2c-0.9-1.7-1.9-3.2-3-4.6l1.1-1.5C2.7,46.9,4.1,47.9,5.4,49.1z M20,63.9l-2.7,2.8
		c-1.3-1.3-2.4-2.7-3.1-4.1c-0.8-1.4-1.2-2.5-1.3-3.2c-1,3.4-3.7,5.8-8,7.3L4,65.2c2.1-1.1,3.6-2.6,4.7-4.6c1.1-1.9,1.6-3.8,1.6-5.5
		v-3.6l3.5,0.7v2.9C13.9,57.9,15.9,60.8,20,63.9z M20,50.1l-1.3,0.7L16,54.4l-1.6-0.7l1-2.7H9.5c-0.5,1-1.3,2.2-2.4,3.5l-1.6-0.9
		c1.3-2.6,2-5.3,2.3-8l3.4,1c-0.1,0.6-0.5,1.5-1,2.8h5l1.6-1.5L20,50.1z"/>
	<path style="fill:#FFFFFF;" d="M11.9,78.1c0,1.7-1,3.4-3.1,5.1l-1.3-1.5c1.1-0.7,1.8-1.4,2.2-2.1H8.1v-4.1h3.7V78.1z"/>
	<path style="fill:#FFFFFF;" d="M20,101.8H0V100h16.6l1.3-1.3l2.1,2.1V101.8z"/>
	<path style="fill:#FFFFFF;" d="M20,131.3l-1,3.4H8.7c-2.3,0-4.2-1.2-5.7-3.6c-0.5,1.4-1,2.7-1.7,4L0,134.4c0.6-3,1-6.3,1-9.7
		c0-0.3,0-0.6,0-1l3.2,0.7c-0.1,1.3-0.2,2.6-0.5,3.8c0.3,0.5,0.6,0.8,0.9,1.2V123H0v-1.6h3.5v-2.8H0.5V117h3.1v-3.1l3.1,0.6v2.5h0.6
		l1.2-1.2l2,1.9v-3.5l3.1,1.4h1.8l1.5-1.4l2.7,2.3l-0.9,0.9v5.8l-3.1,0.6v-1h-2v3.7c0,0.4,0.2,0.7,0.6,0.7h2.3
		c0.3,0,0.5-0.2,0.6-0.5l0.6-2.3l1.5,0.4c-0.1,0.4-0.1,0.8-0.1,1.2c0,1,0.4,1.9,1.1,2.6c-0.5,1.2-1.2,1.9-2.2,1.9h-5.2
		c-1.4,0-2.2-0.7-2.2-2.1v-1H7.7v4.1c0.2,0.1,0.5,0.1,0.8,0.1H20z M10.4,121.9v-3.3H6.6v2.8h0.8l1.2-1.2L10.4,121.9z M10.4,125.9
		V123H7.7v2.5h0.2l1.1-1L10.4,125.9z M15.5,121.1v-3.9h-2v3.9H15.5z"/>
	<path style="fill:#FFFFFF;" d="M20,139.1l-0.8,0.9v16.9l-3.5,0.7v-1.5H4.2v1.1l-3.5,0.7v-21.2l3.5,1.5h11.4l1.6-1.5L20,139.1z
		 M15.6,154.5v-14.7H4.2v14.7H15.6z M15.2,143.2l-0.9,1v8.2L11,153v-1.5H8.6v1.3l-3.2,0.6v-12.6l3.2,1.4h2.3l1.5-1.4L15.2,143.2z
		 M11,149.9v-6H8.6v6H11z"/>
	<path style="fill:#FFFFFF;" d="M20,179l-2.7,1.6c-0.6-1.7-1.4-3.3-2.3-4.7l0.9-0.6h-1.8v0.4l1.2,1.1c-1.6,1.8-3.2,3.1-4.8,3.9
		l-0.9-0.9H5.9v0.4l-2.6,0.5V174c-0.4,3-0.9,5.2-1.6,6.6l-1.7-1c0.5-1.9,0.7-5,0.7-9.1v-11.1l3.1,0.6v0.5c1.6-0.2,3-0.6,4.4-1.1
		l2.4,1.7v-0.6H17l1-1l1.9,1.8v0.9h-3.1c-0.4,0.7-0.9,1.5-1.6,2.2H16l1-0.9l2.7,2.2l-0.6,0.7v9.5l-1.4,0.4
		C18.3,176.6,19,177.6,20,179z M13.9,162.1h-3.3v-0.7c-1,0.2-1.6,0.3-2,0.4l2.5,1.9l-0.5,0.6v2.2l-3,0.6v-0.4H3.8v2.9
		c0.3-0.9,0.6-1.7,0.7-2.5l2.5,0.6l-0.7,1.6h0.6c0.2-0.4,0.4-1.2,0.7-2.3l2.4,0.5c-0.3,0.6-0.8,1.2-1.4,1.8H9l0.8-0.8l1.3,1.4v-6.6
		l2.3,0.5C13.7,163.3,13.8,162.7,13.9,162.1z M8.3,161.8c-1.3,0.2-2.7,0.2-4,0.2c-0.2,0-0.3,0-0.5,0v0.6h3.6L8.3,161.8z M7.7,165.1
		v-0.8H3.8v0.8H7.7z M6.5,172.2v-1.3H5.9v1.3H6.5z M6.5,175.1v-1.3H5.9v1.3H6.5z M6.5,178.1v-1.5H5.9v1.5H6.5z M12.2,176.4l-1,0.2
		v-5.6H9.1v1.3l0.7-0.7L11,173v0.8H9.1v1.3l0.8-0.7l1.1,1.5v0.8H9.1v1.5l0.8-0.8l0.9,0.8C11.4,177.5,11.9,176.9,12.2,176.4z
		 M16.1,167.3v-1.4h-2v1.4H16.1z M16.1,170.4v-1.5h-2v1.5H16.1z M16.1,173.6V172h-1.9v1.6H16.1z"/>
	<path style="fill:#FFFFFF;" d="M20,200.8H0V199h16.6l1.3-1.3l2.1,2V200.8z M18.3,187.3H1.5v-1.8h13.4l1.3-1.3l2.1,2.1V187.3z"/>
	<path style="fill:#FFFFFF;" d="M20,214.7h-8v10.8l-3.7,0.7v-11.5H0v-1.8h8.2V205l3.7,0.7v7.2h4.7l1.3-1.3l2.1,2V214.7z"/>
	<path style="fill:#FFFFFF;" d="M20,244.2h-6.3v4.1l-3.5,0.6v-4.8H0.5v-1.6H3v-6.8c-0.6,0.6-1.1,1-1.4,1.2L0,235.6
		c1.6-2.2,2.9-4.8,3.9-7.8l4,0.6c-0.4,0.9-0.7,1.5-0.9,1.9h9.7l1.2-1.2l2,1.9v0.9h-6.2v3.8h2.7l1.2-1.2l2,1.9v0.9h-5.9v5.3h3.1
		l1.2-1.2l2,1.9V244.2z M10.2,235.7v-3.8H6.1c-0.4,0.8-1,1.6-1.7,2.4c0,0,0,0-0.1,0.1c-0.1,0.1-0.1,0.2-0.2,0.2l2.4,1.2H10.2z
		 M10.2,242.6v-5.3H6.5v5.3H10.2z"/>
	<path style="fill:#FFFFFF;" d="M7.7,260.7l-2.1,2.1c-0.6-1.1-1.2-2-1.7-2.6c-0.6,1.4-1.6,2.7-2.9,3.8L0,263
		c1.3-2.6,2.1-5.4,2.5-8.4l3.2,0.7c-0.3,1.5-0.6,2.5-0.8,3C5.7,258.8,6.6,259.6,7.7,260.7z M20,267.1l-2.1,3.6
		c-3.4-2.7-5.5-5.1-6.3-7.1v7.4L8,271.7v-5.6c-0.8,0.9-1.9,1.8-3.4,2.7c-1.5,0.9-2.8,1.5-4,1.8l-0.6-1.3c1.7-1.1,3.4-2.6,5-4.5
		c1.6-1.9,2.6-3.4,3-4.4v-5.9H0.3v-1.6h7.8v-2.4l3.5,0.6v1.8h5.2l1.2-1.2l2,1.9v0.9h-8.4v6.3c0.3,0.3,0.5,0.7,0.8,1
		c1.2-2.1,1.9-4.6,2.3-7.2l3.2,0.7c-0.2,1.2-0.5,2.1-1,2.9c0.9,0.6,2,1.6,3.1,3l-2.1,2c-0.7-1.4-1.4-2.5-2-3.2
		c-0.6,1.1-1.4,2.1-2.4,3C15.1,264.4,17.3,265.8,20,267.1z"/>
	<path style="fill:#FFFFFF;" d="M20,278.4l-0.7,0.7c0,0.1,0,0.5-0.1,1.3c-0.4,6.9-0.7,10.8-0.9,11.6c-0.3,0.8-0.6,1.4-1.1,1.7
		c-0.5,0.3-1.1,0.5-2,0.5h-1.5c-0.1-1.5-0.7-2.3-2-2.4l0.1-1.3c1.6,0.1,2.6,0.2,2.9,0.2c0.4,0,0.6-0.5,0.7-1.4
		c0.1-0.9,0.2-2.3,0.3-4c0.2-3.6,0.4-5.7,0.4-6.5h-3.4c-0.7,1.5-1.6,2.9-2.6,4.2l-0.9-0.6v10.9L5.9,294v-1.5H3.6v1.3l-3.1,0.6v-18.3
		l3.1,0.9c0.2-1.2,0.3-2.5,0.4-3.8l3.1,0.8c-0.6,1.3-1.3,2.4-2.2,3.2h0.9l1.5-1.3l2.6,2.2L9.1,279v3.1c1-3.1,1.6-6.1,1.8-8.9
		l3.3,0.8c-0.3,1.2-0.6,2.3-0.9,3.2h2.7l1.3-1.2L20,278.4z M5.9,283.6v-4.8H3.6v4.8H5.9z M5.9,291.1V285H3.6v6.1H5.9z M15.1,286
		l-2.6,2.2c-0.5-2-1-3.7-1.6-5.1l1.3-1.1C13.3,283.2,14.3,284.5,15.1,286z"/>
	<path style="fill:#FFFFFF;" d="M20,312.6l-2.5,2.3c-0.4-1.3-1.1-2.6-1.9-4l0.8-0.7c-0.8-0.2-1.5-0.8-2.2-1.8
		c-0.9,0.8-1.8,1.3-2.6,1.7l-0.6-1.1c-0.7,0.2-1.1,0.3-1.1,0.3c1.2,0.5,2.3,1.3,3.4,2.4l-2.5,2.2c-0.7-1.5-1.4-2.7-2.1-3.6l1-1
		l-1.4,0.3v-0.6H5.9v0.3L3.2,310v-3.5c-0.3,1.4-0.8,2.7-1.5,4L0,309.7c0.4-2.2,0.7-5.3,0.7-9.2v-3.2l3.3,1.2h7.1
		c-0.1-1-0.1-1.8-0.2-2.5l3.2,0.5c0,0.3,0.1,0.9,0.2,2h1.2c-0.3-0.5-0.7-1-1.2-1.5l0.9-0.9c0.8,0.3,1.6,0.8,2.2,1.3l-1.2,1.2h0.7
		l1.1-1.2l2,1.9v0.9h-5.4c0.2,1.4,0.5,2.4,0.7,3.1c0.7-1,1.3-1.9,1.7-2.8l2.6,1.5c-0.8,1.7-1.9,3.1-3.1,4.3c0.3,0.5,0.6,0.8,0.8,0.8
		c0.3,0,0.6-0.9,1.1-2.6l1.5,0.4c-0.2,1-0.3,1.6-0.3,2c0,0.5,0.2,1,0.5,1.3c-0.3,1.4-1.1,2.1-2.4,2.1c0,0-0.1,0-0.1,0
		C18.4,310.9,19.2,311.7,20,312.6z M4,310.6c-0.2,1.9-0.5,3.7-0.9,5.3l-3-1.7c0.9-1.4,1.6-2.7,2.2-4.1L4,310.6z M13,306.2
		c-0.3-0.7-0.6-1.8-1-3.5H3.9c0,0.3,0,0.5-0.1,0.5l2.1,0.7h2.4l1.1-0.8l2.5,1.7l-0.9,0.8v2.5C11.5,307.8,12.1,307.1,13,306.2z
		 M11.7,301.6c-0.1-0.3-0.2-0.8-0.3-1.5H4c0,0.5,0,0.8,0,0.9h5.5l0.9-0.9L11.7,301.6z M16.9,315.1c-0.5,1.2-1.2,1.7-2.2,1.7h-8
		c-1.4,0-2.1-0.7-2.1-2v-5.1l3.2,0.6v2.9c0,0.4,0.2,0.6,0.6,0.6h5c0.3,0,0.5-0.2,0.6-0.5l0.6-2.2l1.5,0.3c-0.1,0.4-0.1,0.8-0.1,1.2
		C15.8,313.7,16.2,314.5,16.9,315.1z M8.3,307.4v-1.9H5.9v1.9H8.3z"/>
	<path style="fill:#FFFFFF;" d="M20,325l-0.6,0.6v5c0,4.4-0.2,7-0.5,7.9c-0.2,0.5-0.4,0.8-0.8,1c-0.4,0.2-0.8,0.3-1.5,0.3h-1.3
		c0-0.1,0-0.1,0-0.2c0-1-0.5-1.6-1.6-1.8l0.1-1.4c0.6,0.1,1.1,0.1,1.6,0.1c0.4,0,0.7-0.3,0.7-1c0.1-0.7,0.1-1.5,0.1-2.4
		c0-0.9,0.1-1.8,0.1-2.6v-5h-1v4.8c0,3.4-1.4,6.7-4.2,9.8l-1.2-0.9c0.3-0.6,0.5-1,0.7-1.3c-3.1,0.9-6.4,1.6-9.7,2.2L0,337.2
		c1.2-0.1,2.8-0.2,4.6-0.4v-1.5H0.3v-1.6h4.3v-1.5H3.8v0.4L1,333.2v-8.7l2.8,1h0.8v-1.3H0.3v-1.6h4.3v-0.7C3.3,322,2.1,322,0.9,322
		l-0.5-1.8c3.3-0.2,6.2-0.7,8.7-1.4l2.1,2.1c-1.1,0.3-2.4,0.5-3.7,0.7v1h1.7l0.9-0.8l1.8,1.7v0.3h0.6v-5l3,0.6v4.4h0.8l1.1-1L20,325
		z M4.6,328.1v-0.9H3.8v0.9H4.6z M4.6,330.6v-0.9H3.8v0.9H4.6z M12.5,330v-4.6H11v-1.2H7.5v1.2h0.8l1.3-1.2l2.5,2l-0.9,0.9v5.1
		L8.4,333v-0.8H7.5v1.5h1.2l1-0.9l1.8,1.7v0.8h-4v1.1c1.2-0.1,2.4-0.3,3.6-0.5l0.1,0.5C12,334.4,12.5,332.3,12.5,330z M8.4,328.1
		v-0.9H7.5v0.9H8.4z M8.4,330.6v-0.9H7.5v0.9H8.4z"/>
</g>
</svg>
